<svg xmlns="http://www.w3.org/2000/svg" width="298.5" height="175.0" viewBox="148.5 81.0 298.5 175.0">
<defs>
<g>
</g>
<clipPath id="clip-0">
<path clip-rule="nonzero" d="M 151.613281 84.542969 L 443.007812 84.542969 L 443.007812 252.8125 L 151.613281 252.8125 Z M 151.613281 84.542969 " />
</clipPath>
</defs>
<g clip-path="url(#clip-0)">
<path fill-rule="nonzero" fill="rgb(100%, 100%, 100%)" fill-opacity="1" d="M 151.613281 84.542969 L 443.007812 84.542969 L 443.007812 252.8125 L 151.613281 252.8125 Z M 151.613281 84.542969 " />
<path fill-rule="nonzero" fill="rgb(100%, 100%, 100%)" fill-opacity="1" d="M 151.613281 84.542969 L 444.441406 84.542969 L 444.441406 254.867188 L 151.613281 254.867188 Z M 151.613281 84.542969 " />
</g>
<path fill="none" stroke-width="1" stroke-linecap="butt" stroke-linejoin="miter" stroke="rgb(29.798889%, 32.539368%, 36.468506%)" stroke-opacity="1" stroke-miterlimit="4" d="M 0.000185572 -0.000685406 L 20.00087 -0.000685406 L 20.00087 19.999999 L 0.000185572 19.999999 Z M 0.000185572 -0.000685406 " transform="matrix(2.052078, 0, 0, 2.052078, 153.663682, 86.595157)" />
<path fill-rule="nonzero" fill="rgb(12.149048%, 46.659851%, 70.579529%)" fill-opacity="0.7764" stroke-width="1" stroke-linecap="butt" stroke-linejoin="miter" stroke="rgb(29.798889%, 32.539368%, 36.468506%)" stroke-opacity="1" stroke-miterlimit="4" d="M 0.000870363 -0.000685406 L 19.999652 -0.000685406 L 19.999652 19.999999 L 0.000870363 19.999999 Z M 0.000870363 -0.000685406 " transform="matrix(2.052078, 0, 0, 2.052078, 194.705245, 86.595157)" />
<path fill="none" stroke-width="1" stroke-linecap="butt" stroke-linejoin="miter" stroke="rgb(29.798889%, 32.539368%, 36.468506%)" stroke-opacity="1" stroke-miterlimit="4" d="M -0.000348403 -0.000685406 L 20.000336 -0.000685406 L 20.000336 19.999999 L -0.000348403 19.999999 Z M -0.000348403 -0.000685406 " transform="matrix(2.052078, 0, 0, 2.052078, 235.746809, 86.595157)" />
<path fill-rule="nonzero" fill="rgb(12.149048%, 46.659851%, 70.579529%)" fill-opacity="0.7764" stroke-width="1" stroke-linecap="butt" stroke-linejoin="miter" stroke="rgb(29.798889%, 32.539368%, 36.468506%)" stroke-opacity="1" stroke-miterlimit="4" d="M 0.000336389 -0.000685406 L 19.999118 -0.000685406 L 19.999118 19.999999 L 0.000336389 19.999999 Z M 0.000336389 -0.000685406 " transform="matrix(2.052078, 0, 0, 2.052078, 276.788372, 86.595157)" />
<path fill="none" stroke-width="1" stroke-linecap="butt" stroke-linejoin="miter" stroke="rgb(29.798889%, 32.539368%, 36.468506%)" stroke-opacity="1" stroke-miterlimit="4" d="M -0.000882378 -0.000685406 L 19.999802 -0.000685406 L 19.999802 19.999999 L -0.000882378 19.999999 Z M -0.000882378 -0.000685406 " transform="matrix(2.052078, 0, 0, 2.052078, 317.829936, 86.595157)" />
<path fill-rule="nonzero" fill="rgb(12.149048%, 46.659851%, 70.579529%)" fill-opacity="0.7764" stroke-width="1" stroke-linecap="butt" stroke-linejoin="miter" stroke="rgb(29.798889%, 32.539368%, 36.468506%)" stroke-opacity="1" stroke-miterlimit="4" d="M -0.000197586 -0.000685406 L 20.000487 -0.000685406 L 20.000487 19.999999 L -0.000197586 19.999999 Z M -0.000197586 -0.000685406 " transform="matrix(2.052078, 0, 0, 2.052078, 358.871499, 86.595157)" />
<path fill="none" stroke-width="1" stroke-linecap="butt" stroke-linejoin="miter" stroke="rgb(29.798889%, 32.539368%, 36.468506%)" stroke-opacity="1" stroke-miterlimit="4" d="M 0.000487205 -0.000685406 L 19.999268 -0.000685406 L 19.999268 19.999999 L 0.000487205 19.999999 Z M 0.000487205 -0.000685406 " transform="matrix(2.052078, 0, 0, 2.052078, 399.913063, 86.595157)" />
<path fill="none" stroke-width="1" stroke-linecap="butt" stroke-linejoin="miter" stroke="rgb(29.798889%, 32.539368%, 36.468506%)" stroke-opacity="1" stroke-miterlimit="4" d="M 0.000185572 -0.000000614155 L 20.00087 -0.000000614155 L 20.00087 20.000684 L 0.000185572 20.000684 Z M 0.000185572 -0.000000614155 " transform="matrix(2.052078, 0, 0, 2.052078, 153.663682, 127.63672)" />
<path fill="none" stroke-width="1" stroke-linecap="butt" stroke-linejoin="miter" stroke="rgb(29.798889%, 32.539368%, 36.468506%)" stroke-opacity="1" stroke-miterlimit="4" d="M 0.000870363 -0.000000614155 L 19.999652 -0.000000614155 L 19.999652 20.000684 L 0.000870363 20.000684 Z M 0.000870363 -0.000000614155 " transform="matrix(2.052078, 0, 0, 2.052078, 194.705245, 127.63672)" />
<path fill-rule="nonzero" fill="rgb(12.149048%, 46.659851%, 70.579529%)" fill-opacity="0.7764" stroke-width="1" stroke-linecap="butt" stroke-linejoin="miter" stroke="rgb(29.798889%, 32.539368%, 36.468506%)" stroke-opacity="1" stroke-miterlimit="4" d="M -0.000348403 -0.000000614155 L 20.000336 -0.000000614155 L 20.000336 20.000684 L -0.000348403 20.000684 Z M -0.000348403 -0.000000614155 " transform="matrix(2.052078, 0, 0, 2.052078, 235.746809, 127.63672)" />
<path fill="none" stroke-width="1" stroke-linecap="butt" stroke-linejoin="miter" stroke="rgb(29.798889%, 32.539368%, 36.468506%)" stroke-opacity="1" stroke-miterlimit="4" d="M 0.000336389 -0.000000614155 L 19.999118 -0.000000614155 L 19.999118 20.000684 L 0.000336389 20.000684 Z M 0.000336389 -0.000000614155 " transform="matrix(2.052078, 0, 0, 2.052078, 276.788372, 127.63672)" />
<path fill="none" stroke-width="1" stroke-linecap="butt" stroke-linejoin="miter" stroke="rgb(29.798889%, 32.539368%, 36.468506%)" stroke-opacity="1" stroke-miterlimit="4" d="M -0.000882378 -0.000000614155 L 19.999802 -0.000000614155 L 19.999802 20.000684 L -0.000882378 20.000684 Z M -0.000882378 -0.000000614155 " transform="matrix(2.052078, 0, 0, 2.052078, 317.829936, 127.63672)" />
<path fill="none" stroke-width="1" stroke-linecap="butt" stroke-linejoin="miter" stroke="rgb(29.798889%, 32.539368%, 36.468506%)" stroke-opacity="1" stroke-miterlimit="4" d="M -0.000197586 -0.000000614155 L 20.000487 -0.000000614155 L 20.000487 20.000684 L -0.000197586 20.000684 Z M -0.000197586 -0.000000614155 " transform="matrix(2.052078, 0, 0, 2.052078, 358.871499, 127.63672)" />
<path fill="none" stroke-width="1" stroke-linecap="butt" stroke-linejoin="miter" stroke="rgb(29.798889%, 32.539368%, 36.468506%)" stroke-opacity="1" stroke-miterlimit="4" d="M 0.000487205 -0.000000614155 L 19.999268 -0.000000614155 L 19.999268 20.000684 L 0.000487205 20.000684 Z M 0.000487205 -0.000000614155 " transform="matrix(2.052078, 0, 0, 2.052078, 399.913063, 127.63672)" />
<path fill="none" stroke-width="1" stroke-linecap="butt" stroke-linejoin="miter" stroke="rgb(29.798889%, 32.539368%, 36.468506%)" stroke-opacity="1" stroke-miterlimit="4" d="M 0.000185572 0.000684177 L 20.00087 0.000684177 L 20.00087 19.999465 L 0.000185572 19.999465 Z M 0.000185572 0.000684177 " transform="matrix(2.052078, 0, 0, 2.052078, 153.663682, 168.678284)" />
<path fill-rule="nonzero" fill="rgb(12.149048%, 46.659851%, 70.579529%)" fill-opacity="0.7764" stroke-width="1" stroke-linecap="butt" stroke-linejoin="miter" stroke="rgb(29.798889%, 32.539368%, 36.468506%)" stroke-opacity="1" stroke-miterlimit="4" d="M 0.000870363 0.000684177 L 19.999652 0.000684177 L 19.999652 19.999465 L 0.000870363 19.999465 Z M 0.000870363 0.000684177 " transform="matrix(2.052078, 0, 0, 2.052078, 194.705245, 168.678284)" />
<path fill-rule="nonzero" fill="rgb(12.149048%, 46.659851%, 70.579529%)" fill-opacity="0.7764" stroke-width="1" stroke-linecap="butt" stroke-linejoin="miter" stroke="rgb(29.798889%, 32.539368%, 36.468506%)" stroke-opacity="1" stroke-miterlimit="4" d="M -0.000348403 0.000684177 L 20.000336 0.000684177 L 20.000336 19.999465 L -0.000348403 19.999465 Z M -0.000348403 0.000684177 " transform="matrix(2.052078, 0, 0, 2.052078, 235.746809, 168.678284)" />
<path fill="none" stroke-width="1" stroke-linecap="butt" stroke-linejoin="miter" stroke="rgb(29.798889%, 32.539368%, 36.468506%)" stroke-opacity="1" stroke-miterlimit="4" d="M 0.000336389 0.000684177 L 19.999118 0.000684177 L 19.999118 19.999465 L 0.000336389 19.999465 Z M 0.000336389 0.000684177 " transform="matrix(2.052078, 0, 0, 2.052078, 276.788372, 168.678284)" />
<path fill-rule="nonzero" fill="rgb(12.149048%, 46.659851%, 70.579529%)" fill-opacity="0.7764" stroke-width="1" stroke-linecap="butt" stroke-linejoin="miter" stroke="rgb(29.798889%, 32.539368%, 36.468506%)" stroke-opacity="1" stroke-miterlimit="4" d="M -0.000882378 0.000684177 L 19.999802 0.000684177 L 19.999802 19.999465 L -0.000882378 19.999465 Z M -0.000882378 0.000684177 " transform="matrix(2.052078, 0, 0, 2.052078, 317.829936, 168.678284)" />
<path fill="none" stroke-width="1" stroke-linecap="butt" stroke-linejoin="miter" stroke="rgb(29.798889%, 32.539368%, 36.468506%)" stroke-opacity="1" stroke-miterlimit="4" d="M -0.000197586 0.000684177 L 20.000487 0.000684177 L 20.000487 19.999465 L -0.000197586 19.999465 Z M -0.000197586 0.000684177 " transform="matrix(2.052078, 0, 0, 2.052078, 358.871499, 168.678284)" />
<path fill="none" stroke-width="1" stroke-linecap="butt" stroke-linejoin="miter" stroke="rgb(29.798889%, 32.539368%, 36.468506%)" stroke-opacity="1" stroke-miterlimit="4" d="M 0.000487205 0.000684177 L 19.999268 0.000684177 L 19.999268 19.999465 L 0.000487205 19.999465 Z M 0.000487205 0.000684177 " transform="matrix(2.052078, 0, 0, 2.052078, 399.913063, 168.678284)" />
<path fill="none" stroke-width="1" stroke-linecap="butt" stroke-linejoin="miter" stroke="rgb(29.798889%, 32.539368%, 36.468506%)" stroke-opacity="1" stroke-miterlimit="4" d="M 0.000185572 -0.000534589 L 20.00087 -0.000534589 L 20.00087 20.00015 L 0.000185572 20.00015 Z M 0.000185572 -0.000534589 " transform="matrix(2.052078, 0, 0, 2.052078, 153.663682, 209.719847)" />
<path fill="none" stroke-width="1" stroke-linecap="butt" stroke-linejoin="miter" stroke="rgb(29.798889%, 32.539368%, 36.468506%)" stroke-opacity="1" stroke-miterlimit="4" d="M 0.000870363 -0.000534589 L 19.999652 -0.000534589 L 19.999652 20.00015 L 0.000870363 20.00015 Z M 0.000870363 -0.000534589 " transform="matrix(2.052078, 0, 0, 2.052078, 194.705245, 209.719847)" />
<path fill="none" stroke-width="1" stroke-linecap="butt" stroke-linejoin="miter" stroke="rgb(29.798889%, 32.539368%, 36.468506%)" stroke-opacity="1" stroke-miterlimit="4" d="M -0.000348403 -0.000534589 L 20.000336 -0.000534589 L 20.000336 20.00015 L -0.000348403 20.00015 Z M -0.000348403 -0.000534589 " transform="matrix(2.052078, 0, 0, 2.052078, 235.746809, 209.719847)" />
<path fill="none" stroke-width="1" stroke-linecap="butt" stroke-linejoin="miter" stroke="rgb(29.798889%, 32.539368%, 36.468506%)" stroke-opacity="1" stroke-miterlimit="4" d="M 0.000336389 -0.000534589 L 19.999118 -0.000534589 L 19.999118 20.00015 L 0.000336389 20.00015 Z M 0.000336389 -0.000534589 " transform="matrix(2.052078, 0, 0, 2.052078, 276.788372, 209.719847)" />
<path fill="none" stroke-width="1" stroke-linecap="butt" stroke-linejoin="miter" stroke="rgb(29.798889%, 32.539368%, 36.468506%)" stroke-opacity="1" stroke-miterlimit="4" d="M -0.000882378 -0.000534589 L 19.999802 -0.000534589 L 19.999802 20.00015 L -0.000882378 20.00015 Z M -0.000882378 -0.000534589 " transform="matrix(2.052078, 0, 0, 2.052078, 317.829936, 209.719847)" />
<path fill="none" stroke-width="1" stroke-linecap="butt" stroke-linejoin="miter" stroke="rgb(29.798889%, 32.539368%, 36.468506%)" stroke-opacity="1" stroke-miterlimit="4" d="M -0.000197586 -0.000534589 L 20.000487 -0.000534589 L 20.000487 20.00015 L -0.000197586 20.00015 Z M -0.000197586 -0.000534589 " transform="matrix(2.052078, 0, 0, 2.052078, 358.871499, 209.719847)" />
<path fill="none" stroke-width="1" stroke-linecap="butt" stroke-linejoin="miter" stroke="rgb(29.798889%, 32.539368%, 36.468506%)" stroke-opacity="1" stroke-miterlimit="4" d="M 0.000487205 -0.000534589 L 19.999268 -0.000534589 L 19.999268 20.00015 L 0.000487205 20.00015 Z M 0.000487205 -0.000534589 " transform="matrix(2.052078, 0, 0, 2.052078, 399.913063, 209.719847)" />
<path fill-rule="nonzero" fill="rgb(12.149048%, 46.659851%, 70.579529%)" fill-opacity="1" d="M 315.777344 115.324219 C 315.777344 126.609375 306.542969 135.84375 295.257812 135.84375 C 283.96875 135.84375 274.734375 126.609375 274.734375 115.324219 C 274.734375 104.039062 283.96875 94.804688 295.257812 94.804688 C 306.542969 94.804688 315.777344 104.039062 315.777344 115.324219 Z M 315.777344 115.324219 " />
<path fill-rule="nonzero" fill="rgb(12.149048%, 46.659851%, 70.579529%)" fill-opacity="1" d="M 287.046875 156.367188 C 287.046875 167.652344 277.8125 176.886719 266.527344 176.886719 C 255.242188 176.886719 246.007812 167.652344 246.007812 156.367188 C 246.007812 145.078125 255.242188 135.84375 266.527344 135.84375 C 277.8125 135.84375 287.046875 145.078125 287.046875 156.367188 Z M 287.046875 156.367188 " />
<path fill-rule="nonzero" fill="rgb(12.149048%, 46.659851%, 70.579529%)" fill-opacity="1" d="M 243.957031 172.78125 C 243.957031 184.070312 234.722656 193.304688 223.433594 193.304688 C 212.148438 193.304688 202.914062 184.070312 202.914062 172.78125 C 202.914062 161.496094 212.148438 152.261719 223.433594 152.261719 C 234.722656 152.261719 243.957031 161.496094 243.957031 172.78125 Z M 243.957031 172.78125 " />
<path fill-rule="nonzero" fill="rgb(12.149048%, 46.659851%, 70.579529%)" fill-opacity="1" d="M 287.046875 203.5625 C 287.046875 214.851562 277.8125 224.085938 266.527344 224.085938 C 255.242188 224.085938 246.007812 214.851562 246.007812 203.5625 C 246.007812 192.277344 255.242188 183.042969 266.527344 183.042969 C 277.8125 183.042969 287.046875 192.277344 287.046875 203.5625 Z M 287.046875 203.5625 " />
<path fill-rule="nonzero" fill="rgb(12.149048%, 46.659851%, 70.579529%)" fill-opacity="1" d="M 358.871094 178.9375 C 358.871094 190.226562 349.636719 199.460938 338.351562 199.460938 C 327.0625 199.460938 317.828125 190.226562 317.828125 178.9375 C 317.828125 167.652344 327.0625 158.417969 338.351562 158.417969 C 349.636719 158.417969 358.871094 167.652344 358.871094 178.9375 Z M 358.871094 178.9375 " />
<path fill-rule="nonzero" fill="rgb(12.149048%, 46.659851%, 70.579529%)" fill-opacity="1" d="M 412.226562 121.480469 C 412.226562 132.765625 402.992188 142 391.703125 142 C 380.417969 142 371.183594 132.765625 371.183594 121.480469 C 371.183594 110.195312 380.417969 100.960938 391.703125 100.960938 C 402.992188 100.960938 412.226562 110.195312 412.226562 121.480469 Z M 412.226562 121.480469 " />
<path fill-rule="nonzero" fill="rgb(12.149048%, 46.659851%, 70.579529%)" fill-opacity="1" d="M 225.488281 121.480469 C 225.488281 132.765625 216.253906 142 204.964844 142 C 193.679688 142 184.445312 132.765625 184.445312 121.480469 C 184.445312 110.195312 193.679688 100.960938 204.964844 100.960938 C 216.253906 100.960938 225.488281 110.195312 225.488281 121.480469 Z M 225.488281 121.480469 " />
</svg>