<!-- A brush stroke with soft, slightly dry ends, drawn procedurally; used as a CSS mask, so its colour comes from the page. -->
<svg xmlns="http://www.w3.org/2000/svg" viewBox="0 0 240 48" preserveAspectRatio="none"><path fill-rule="evenodd" d="M22.0 8.5 L23.4 8.7 L24.8 8.6 L26.2 8.6 L27.6 8.7 L29.0 8.6 L30.4 8.7 L31.8 8.6 L33.2 8.5 L34.6 8.4 L36.0 8.4 L37.4 8.4 L38.8 8.4 L40.2 8.3 L41.6 8.4 L43.0 8.2 L44.4 8.1 L45.8 8.3 L47.2 8.2 L48.6 8.1 L50.0 8.3 L51.4 8.1 L52.8 8.2 L54.2 8.2 L55.6 8.1 L57.0 8.1 L58.4 8.0 L59.8 7.9 L61.2 7.9 L62.6 8.0 L64.0 8.1 L65.4 8.0 L66.8 8.0 L68.2 8.0 L69.6 7.8 L71.0 7.8 L72.4 8.0 L73.8 7.7 L75.2 7.8 L76.6 7.8 L78.0 7.7 L79.4 7.8 L80.8 7.7 L82.2 7.8 L83.6 7.7 L85.0 7.7 L86.4 7.7 L87.8 7.5 L89.2 7.7 L90.6 7.6 L92.0 7.4 L93.4 7.5 L94.8 7.6 L96.2 7.7 L97.6 7.5 L99.0 7.4 L100.4 7.5 L101.8 7.5 L103.2 7.4 L104.6 7.3 L106.0 7.3 L107.4 7.2 L108.8 7.3 L110.2 7.3 L111.6 7.2 L113.0 7.1 L114.4 7.0 L115.8 6.9 L117.2 7.0 L118.6 6.9 L120.0 6.8 L121.4 6.7 L122.8 6.6 L124.2 6.5 L125.6 6.5 L127.0 6.4 L128.4 6.3 L129.8 6.2 L131.2 6.2 L132.6 6.3 L134.0 6.2 L135.4 6.2 L136.8 6.3 L138.2 6.3 L139.6 6.3 L141.0 6.1 L142.4 6.2 L143.8 6.1 L145.2 6.2 L146.6 6.3 L148.0 6.3 L149.4 6.5 L150.8 6.3 L152.2 6.6 L153.6 6.4 L155.0 6.5 L156.4 6.6 L157.8 6.7 L159.2 6.9 L160.6 6.9 L162.0 6.8 L163.4 7.1 L164.8 7.0 L166.2 7.1 L167.6 7.2 L169.0 7.1 L170.4 7.3 L171.8 7.2 L173.2 7.5 L174.6 7.2 L176.0 7.5 L177.4 7.3 L178.8 7.5 L180.2 7.5 L181.6 7.5 L183.0 7.4 L184.4 7.6 L185.8 7.5 L187.2 7.5 L188.6 7.5 L190.0 7.7 L191.4 7.7 L192.8 7.6 L194.2 7.6 L195.6 7.8 L197.0 7.6 L198.4 7.7 L199.8 7.6 L201.2 7.5 L202.6 7.8 L204.0 7.8 L205.4 7.6 L206.8 7.7 L208.2 7.8 L209.6 7.8 L211.0 7.6 L212.4 7.7 L213.8 7.7 L215.2 7.9 L216.6 7.9 L218.0 7.8 L225.0 11.7 L221.5 13.9 L226.1 16.1 L223.0 17.9 L230.5 19.5 L226.4 21.9 L227.6 24.3 L224.8 26.0 L229.4 28.3 L225.5 30.0 L225.6 32.3 L221.2 34.0 L224.4 36.3 L221.7 38.1 L218.0 40.1 L216.6 39.9 L215.2 40.0 L213.8 40.0 L212.4 40.0 L211.0 40.0 L209.6 39.9 L208.2 40.0 L206.8 39.9 L205.4 39.9 L204.0 40.0 L202.6 40.0 L201.2 39.9 L199.8 39.8 L198.4 39.9 L197.0 39.8 L195.6 40.0 L194.2 40.1 L192.8 39.9 L191.4 40.0 L190.0 40.0 L188.6 39.8 L187.2 40.0 L185.8 39.9 L184.4 40.0 L183.0 39.9 L181.6 39.8 L180.2 39.9 L178.8 40.1 L177.4 40.0 L176.0 40.1 L174.6 40.0 L173.2 40.2 L171.8 40.2 L170.4 40.2 L169.0 40.2 L167.6 40.1 L166.2 40.2 L164.8 40.1 L163.4 40.1 L162.0 40.1 L160.6 40.2 L159.2 40.3 L157.8 40.4 L156.4 40.4 L155.0 40.5 L153.6 40.5 L152.2 40.4 L150.8 40.6 L149.4 40.5 L148.0 40.4 L146.6 40.6 L145.2 40.6 L143.8 40.7 L142.4 40.5 L141.0 40.7 L139.6 40.6 L138.2 40.5 L136.8 40.5 L135.4 40.6 L134.0 40.5 L132.6 40.5 L131.2 40.7 L129.8 40.5 L128.4 40.5 L127.0 40.5 L125.6 40.6 L124.2 40.5 L122.8 40.6 L121.4 40.4 L120.0 40.4 L118.6 40.5 L117.2 40.4 L115.8 40.5 L114.4 40.5 L113.0 40.3 L111.6 40.3 L110.2 40.3 L108.8 40.1 L107.4 40.2 L106.0 40.3 L104.6 40.3 L103.2 40.3 L101.8 40.0 L100.4 40.2 L99.0 40.2 L97.6 40.2 L96.2 40.0 L94.8 40.1 L93.4 40.2 L92.0 40.2 L90.6 40.2 L89.2 40.1 L87.8 40.1 L86.4 40.0 L85.0 40.2 L83.6 40.0 L82.2 40.2 L80.8 40.2 L79.4 40.0 L78.0 40.0 L76.6 40.1 L75.2 39.9 L73.8 39.8 L72.4 40.1 L71.0 39.8 L69.6 39.8 L68.2 39.9 L66.8 39.8 L65.4 40.0 L64.0 40.0 L62.6 40.0 L61.2 39.9 L59.8 39.8 L58.4 40.0 L57.0 39.9 L55.6 39.9 L54.2 39.7 L52.8 39.9 L51.4 39.7 L50.0 39.9 L48.6 39.8 L47.2 39.8 L45.8 40.0 L44.4 39.8 L43.0 39.8 L41.6 39.9 L40.2 39.9 L38.8 39.9 L37.4 40.0 L36.0 40.1 L34.6 39.9 L33.2 40.1 L31.8 40.0 L30.4 40.0 L29.0 40.1 L27.6 40.1 L26.2 39.9 L24.8 40.1 L23.4 40.0 L22.0 39.9 L15.8 36.2 L19.7 34.0 L13.5 32.2 L17.0 30.1 L12.3 28.2 L16.8 26.2 L12.4 24.5 L15.2 22.3 L10.4 20.5 L13.1 18.3 L13.6 16.1 L16.6 14.4 L15.8 12.6 L18.6 10.5 Z"/></svg>
